<?xml version="1.0" encoding="UTF-8"?>
<svg viewBox="0 0 750 500"
  xmlns="http://www.w3.org/2000/svg"
  xmlns:xlink="http://www.w3.org/1999/xlink" version="1.1">
  <!-- Generated by Pixelmator Pro 2.0.6 -->
  <g id="Layer_3">
    <path id="Path" d="M554.69 55.46 C221.06 55.46 101.94 444.69 -1.36 444.69 184.01 444.69 236.49 197.51 417.76 197.51 L465 95.46 Z" fill="#ffffff" fill-opacity="1" stroke="none"/>
    <path id="Path-1" d="M749.31 250.08 C749.31 357.56 662.17 444.69 554.69 444.69 447.21 444.69 360.07 357.56 360.07 250.08 360.07 142.6 447.2 55.46 554.69 55.46 562.081 55.458 569.466 55.872 576.81 56.7 498.079 66.872 440.222 135.593 443.615 214.905 447.008 294.218 510.522 357.747 589.834 361.158 669.145 364.569 737.88 306.728 748.07 228 748.896 235.331 749.31 242.703 749.31 250.08 Z" fill="#ffffff" fill-opacity="1" stroke="none"/>
  </g>
</svg>
